<svg xmlns="http://www.w3.org/2000/svg" data-name="Layer 61" viewBox="-5.0 -10.0 110.0 135.0" x="0px" y="0px"><path d="m94.917,25.55c.553,0,1-.447,1-1v-6.17c0-.553-.447-1-1-1h-6.172v-4.127c0-.553-.447-1-1-1h-.911v-4.439c0-.553-.447-1-1-1h-5.764c-.553,0-1,.447-1,1v4.439h-.911c-.553,0-1,.447-1,1v4.127h-3.013v-5.152c0-.553-.447-1-1-1H26.687c-.553,0-1,.447-1,1v5.152h-3.013v-4.127c0-.553-.447-1-1-1h-.91v-4.439c0-.553-.447-1-1-1h-5.765c-.553,0-1,.447-1,1v4.439h-.911c-.553,0-1,.447-1,1v4.127h-6.006c-.553,0-1,.447-1,1v6.17c0,.553.447,1,1,1h2.212v59.468h-2.212c-.553,0-1,.447-1,1v6.169c0,.553.447,1,1,1h89.834c.553,0,1-.447,1-1v-6.169c0-.553-.447-1-1-1h-2.378V25.55h2.378Zm-13.847-16.736h3.764v3.439h-3.764v-3.439Zm-1.911,5.439h7.586v3.127h-7.586v-3.127Zm-51.472-1.025h44.459v4.152H27.687v-4.152Zm-12.687-4.414h3.765v3.439h-3.765v-3.439Zm-1.911,5.439h7.586v3.127h-7.586v-3.127Zm-7.006,5.127h87.834v4.17H6.083v-4.17Zm87.834,71.807H6.083v-4.169h87.834v4.169Zm-3.378-6.169H9.295V25.55h81.244v59.468Z"/><path d="m39.561,62.336h9.509l-1.565,13.561c-.057.484.246.939.716,1.075.092.026.186.039.277.039.377,0,.732-.214.901-.567l9.937-20.728c.148-.311.128-.675-.055-.966-.184-.29-.503-.467-.847-.467h-9.305l3.401-15.511c.107-.488-.163-.981-.634-1.153-.469-.171-.995.03-1.228.474l-11.993,22.777c-.163.31-.152.683.028.982.182.3.506.483.856.483Zm9.432-16.767l-2.083,9.5c-.065.296.008.604.197.841.19.235.477.373.779.373h8.96l-6.671,13.914,1.01-8.747c.033-.283-.057-.566-.247-.779-.189-.213-.461-.335-.746-.335h-8.975l7.775-14.767Z"/><path d="m18.765,35.202h1.522v1.521c0,.553.447,1,1,1s1-.447,1-1v-1.521h1.521c.553,0,1-.447,1-1s-.447-1-1-1h-1.521v-1.522c0-.553-.447-1-1-1s-1,.447-1,1v1.522h-1.522c-.553,0-1,.447-1,1s.447,1,1,1Z"/><path d="m76.025,35.202h5.045c.553,0,1-.447,1-1s-.447-1-1-1h-5.045c-.553,0-1,.447-1,1s.447,1,1,1Z"/></svg>