<svg xmlns="http://www.w3.org/2000/svg" data-name="Layer 77" viewBox="-5.0 -10.0 110.0 135.0" x="0px" y="0px"><path d="m73.983,32.532l-22.146-12.801c-1.242-.718-2.607-1.183-4.016-1.408v-3.545h.605c.553,0,1-.447,1-1v-6.772c0-1.657-1.349-3.006-3.006-3.006h-12.555c-1.657,0-3.006,1.349-3.006,3.006v6.772c0,.553.447,1,1,1h.604v3.636c-.781.243-1.505.65-2.099,1.244l-7.469,7.467c-.965.967-1.496,2.25-1.496,3.615v62.273c0,1.646,1.339,2.985,2.985,2.985h51.099c1.646,0,2.986-1.339,2.986-2.985v-52.705c0-3.196-1.72-6.177-4.488-7.777ZM32.86,7.006c0-.555.451-1.006,1.006-1.006h12.555c.555,0,1.006.451,1.006,1.006v5.772h-3.283v-2.355c0-.553-.447-1-1-1s-1,.447-1,1v2.355h-4.001v-2.355c0-.553-.447-1-1-1s-1,.447-1,1v2.355h-3.282v-5.772Zm12.961,7.772v3.384h-11.356v-3.384h11.356Zm30.65,78.236c0,.543-.442.985-.986.985H24.387c-.543,0-.985-.442-.985-.985V30.741c0-.831.324-1.613.911-2.201l7.469-7.467c.586-.588,1.367-.911,2.199-.911h12.008c1.7,0,3.376.449,4.848,1.301l22.146,12.802c2.152,1.244,3.489,3.561,3.489,6.045v52.705Z"/><path d="m73.038,73.139h-13.489c-.603,0-1.093-.49-1.093-1.093V31.92c0-.353-.186-.679-.488-.859l-10.405-6.191c-.155-.092-.332-.141-.512-.141h-10.431c-1.365,0-2.648.532-3.614,1.498l-4.108,4.106c-.965.967-1.496,2.25-1.496,3.615v54.259c0,.553.447,1,1,1h44.637c.553,0,1-.447,1-1v-14.068c0-.553-.447-1-1-1Zm-1,14.068H29.401v-53.259c0-.831.324-1.613.911-2.201l4.107-4.106c.588-.588,1.37-.912,2.2-.912h10.155l9.681,5.76v39.558c0,1.705,1.388,3.093,3.093,3.093h12.489v12.068Z"/><path d="m63.773,70.185h6.605c1.344,0,2.437-1.093,2.437-2.437v-27.555c0-.858-.46-1.663-1.201-2.1l-6.604-3.888c-.763-.448-1.677-.456-2.445-.017s-1.228,1.229-1.228,2.115v31.443c0,1.344,1.093,2.437,2.436,2.437Zm-.436-33.88c0-.221.138-.332.22-.379.048-.027.124-.06.218-.06.066,0,.141.017.221.062l6.604,3.888c.133.078.216.223.216.377v27.555c0,.24-.196.437-.437.437h-6.605c-.24,0-.436-.196-.436-.437v-31.443Z"/><path d="m41.377,61.689c-.269.298-6.562,7.358-6.562,13.088,0,7.116,4.577,8.179,7.306,8.179s7.307-1.062,7.307-8.179c0-5.73-6.295-12.79-6.563-13.088-.379-.422-1.107-.422-1.486,0Zm.743,19.267c-3.57,0-5.306-2.021-5.306-6.179,0-3.895,3.689-8.872,5.306-10.867,1.617,1.995,5.307,6.973,5.307,10.867,0,4.157-1.735,6.179-5.307,6.179Z"/><path d="m48.427,48.321h-12.612c-.553,0-1,.447-1,1s.447,1,1,1h12.612c.553,0,1-.447,1-1s-.447-1-1-1Z"/><path d="m48.427,53.48h-12.612c-.553,0-1,.447-1,1s.447,1,1,1h12.612c.553,0,1-.447,1-1s-.447-1-1-1Z"/><path d="m62.3,79.924h5.732c.553,0,1-.447,1-1s-.447-1-1-1h-5.732c-.553,0-1,.447-1,1s.447,1,1,1Z"/><path d="m57.713,77.924c-.553,0-1,.447-1,1s.447,1,1,1h1.567c.553,0,1-.447,1-1s-.447-1-1-1h-1.567Z"/><path d="m68.032,82.051h-14.446c-.553,0-1,.447-1,1s.447,1,1,1h14.446c.553,0,1-.447,1-1s-.447-1-1-1Z"/><path d="m48.427,35.2h-12.612c-.553,0-1,.447-1,1v4.662c0,.553.447,1,1,1h12.612c.553,0,1-.447,1-1v-4.662c0-.553-.447-1-1-1Zm-1,4.662h-10.612v-2.662h10.612v2.662Z"/></svg>