<svg xmlns="http://www.w3.org/2000/svg" data-name="Layer 58" viewBox="-5.0 -10.0 110.0 135.0" x="0px" y="0px"><path d="m45.488,46.07v-3.725c0-2.104-1.712-3.815-3.815-3.815H12.756c-2.104,0-3.815,1.711-3.815,3.815v28.917c0,2.104,1.712,3.815,3.815,3.815h28.917c2.104,0,3.815-1.711,3.815-3.815v-25.172s.002-.006.002-.01-.002-.006-.002-.01Zm-13.881,3.391h6.324c1.289,0,2.338-1.048,2.338-2.337v-.043h3.219v5.148H10.94v-5.148h18.33v.043c0,1.289,1.048,2.337,2.337,2.337Zm6.662-2.337c0,.186-.151.337-.338.337h-6.324c-.186,0-.337-.151-.337-.337v-2.089c0-.186.151-.337.337-.337h6.324c.187,0,.338.151.338.337v2.089Zm5.219,7.105v5.15H10.94v-5.15h32.548Zm-32.548,7.15h32.548v5.15H10.94v-5.15Zm1.815-20.849h28.917c1.001,0,1.815.814,1.815,1.815v2.735h-3.219v-.046c0-1.289-1.049-2.337-2.338-2.337h-6.324c-1.289,0-2.337,1.048-2.337,2.337v.046H10.94v-2.735c0-1.001.814-1.815,1.815-1.815Zm28.917,32.548H12.756c-1.001,0-1.815-.814-1.815-1.815v-2.734h32.548v2.734c0,1.001-.814,1.815-1.815,1.815Z"/><path d="m96,33.929c0-8.945-7.277-16.222-16.222-16.222-8.706,0-15.812,6.898-16.187,15.513H10.32c-3.485,0-6.32,2.835-6.32,6.32v34.53c0,3.485,2.835,6.32,6.32,6.32h78.41c3.484,0,6.319-2.835,6.319-6.32v-34.53c0-.059-.006-.114-.008-.172.609-1.703.958-3.529.958-5.439Zm-16.222-14.222c7.842,0,14.222,6.38,14.222,14.222s-6.38,14.222-14.222,14.222-14.223-6.38-14.223-14.222,6.38-14.222,14.223-14.222Zm-11.752,25.373h-12.467v-2.73c0-1.004.812-1.82,1.811-1.82h7.603c.757,1.69,1.794,3.224,3.053,4.55Zm20.084,14.3h-3.524v-.148c0-1.289-1.049-2.337-2.337-2.337h-6.324c-1.289,0-2.338,1.048-2.338,2.337v.148h-18.027v-5.151h32.551v5.151Zm-12.523,1.015c0-.005.003-.009.003-.015s-.003-.009-.003-.015v-1.134c0-.186.151-.337.338-.337h6.324c.186,0,.337.151.337.337v2.089c0,.186-.151.337-.337.337h-6.324c-.187,0-.338-.151-.338-.337v-.926Zm-20.027.985h18.033c.032,1.261,1.063,2.278,2.332,2.278h6.324c1.268,0,2.299-1.017,2.331-2.278h3.53v5.148h-32.551v-5.148Zm32.551-13.558v4.407h-32.551v-5.148h14.758c2.667,1.924,5.929,3.071,9.461,3.071,3.049,0,5.893-.861,8.332-2.33Zm-32.551,20.707h32.551v2.731c0,1.004-.816,1.82-1.82,1.82h-28.92c-.998,0-1.811-.816-1.811-1.82v-2.731Zm37.49,5.542c0,2.382-1.938,4.32-4.319,4.32H10.32c-2.382,0-4.32-1.938-4.32-4.32v-34.53c0-2.382,1.938-4.32,4.32-4.32h53.301c.091,1.14.294,2.247.609,3.31h-6.86c-2.102,0-3.811,1.714-3.811,3.82v10.874s0,.003,0,.005,0,.003,0,.005v14.29s0,.003,0,.005,0,.003,0,.005v3.727c0,2.106,1.709,3.82,3.811,3.82h28.92c2.106,0,3.82-1.714,3.82-3.82v-24.835c1.118-.927,2.103-2.006,2.939-3.197v30.842Z"/><path d="m70.897,40.208l1.564-.903-.122.447c-.146.533.169,1.083.702,1.228.088.024.177.036.264.036.439,0,.843-.293.964-.738l.651-2.392,3.857-2.226v4.418s-1.782,1.78-1.782,1.78c-.391.391-.391,1.024,0,1.415s1.023.391,1.414,0l.367-.366v1.852c0,.552.447,1,1,1s1-.448,1-1v-1.856s.371.371.371.371c.195.195.451.293.707.293s.512-.098.707-.293c.391-.391.391-1.023,0-1.414l-1.784-1.784v-4.414s3.841,2.218,3.841,2.218l.65,2.415c.12.446.524.741.965.741.086,0,.174-.011.261-.035.533-.144.85-.692.706-1.226l-.129-.479,1.585.916c.157.091.329.134.499.134.346,0,.682-.179.867-.5.276-.478.112-1.09-.366-1.366l-1.618-.935.527-.142c.533-.144.85-.692.706-1.226s-.693-.85-1.226-.706l-2.454.66-3.813-2.203,3.818-2.203,2.454.668c.088.024.177.036.264.036.439,0,.843-.293.964-.738.146-.533-.169-1.083-.702-1.228l-.539-.147,1.622-.936c.479-.276.643-.888.366-1.366-.277-.479-.89-.642-1.366-.366l-1.568.905.127-.465c.146-.533-.169-1.083-.702-1.228-.528-.144-1.082.168-1.228.702l-.656,2.409-3.853,2.223v-4.432s1.782-1.782,1.782-1.782c.391-.391.391-1.024,0-1.414-.391-.391-1.023-.391-1.414,0l-.367.367v-1.836c0-.552-.447-1-1-1s-1,.448-1,1v1.84s-.371-.371-.371-.371c-.391-.391-1.023-.391-1.414,0s-.391,1.024,0,1.414l1.784,1.784v4.431s-3.836-2.215-3.836-2.215l-.655-2.434c-.144-.534-.694-.851-1.226-.706-.533.144-.85.692-.706,1.226l.134.498-1.59-.918c-.478-.278-1.09-.113-1.366.366-.276.478-.112,1.09.366,1.366l1.599.924-.508.137c-.533.144-.85.692-.706,1.226.12.446.524.741.965.741.086,0,.174-.011.261-.035l2.436-.655,3.831,2.213-3.799,2.193-2.472-.673c-.53-.143-1.082.169-1.228.702s.169,1.083.702,1.228l.557.152-1.64.946c-.479.276-.643.888-.366,1.366.186.321.521.5.867.5.17,0,.342-.043.499-.134Z"/></svg>