<svg xmlns="http://www.w3.org/2000/svg" data-name="Layer 23" viewBox="-5.0 -10.0 110.0 135.0" x="0px" y="0px"><path d="m50,63.596c13.095,0,23.749-10.654,23.749-23.749s-10.654-23.749-23.749-23.749-23.749,10.654-23.749,23.749,10.654,23.749,23.749,23.749Zm0-45.498c11.993,0,21.749,9.756,21.749,21.749s-9.756,21.749-21.749,21.749-21.749-9.756-21.749-21.749,9.756-21.749,21.749-21.749Z"/><path d="m38.096,52.102c1.036,1.007,2.222,1.893,3.525,2.633,0,0,.001,0,.002,0s.001,0,.002.001c2.556,1.437,5.452,2.196,8.375,2.196s5.819-.759,8.379-2.198c1.303-.74,2.489-1.626,3.525-2.633,0,0,0,0,0,0,0,0,0,0,0,0,3.342-3.25,5.182-7.602,5.182-12.254,0-1.187-.119-2.351-.351-3.455-.23-1.117-.568-2.198-1.007-3.226-.147-.343-.305-.681-.474-1.012,0,0-.001-.001-.002-.002-2.554-5.057-7.413-8.514-12.992-9.245-1.051-.147-2.281-.184-3.422-.11-.379.024-.746.061-1.092.109-5.589.733-10.45,4.192-13.001,9.249-.676,1.324-1.174,2.75-1.48,4.233,0,0,0,0,0,0,0,.001,0,.002,0,.003,0,0,0,.002,0,.002-.232,1.107-.351,2.269-.351,3.453,0,4.652,1.84,9.004,5.183,12.255Zm-3.06-14.095l5.788,2.411c.697.291,1.23.869,1.463,1.586.233.717.142,1.498-.251,2.143l-3.411,5.593c-2.397-2.747-3.712-6.21-3.712-9.893,0-.625.049-1.237.122-1.84Zm.72-3.139c.006-.016.013-.032.019-.048.116-.329.245-.651.384-.969.012-.027.025-.053.037-.08l6.465,1.536c1.302.309,2.669.036,3.752-.751,1.083-.787,1.766-2.003,1.874-3.337l.519-6.409c.027-.002.052-.006.08-.008.718-.05,1.508-.05,2.226,0,.028.002.054.006.082.008l.519,6.409c.108,1.334.791,2.551,1.874,3.337,1.083.787,2.454,1.059,3.752.751l6.465-1.536c.012.027.026.054.038.081.138.315.266.636.381.962.007.018.015.036.021.055.12.344.226.695.321,1.049.007.027.012.054.019.081l-6.178,2.574c-1.236.515-2.182,1.541-2.596,2.814-.414,1.273-.251,2.659.446,3.802l3.654,5.991c-.285.248-.558.507-.864.736-.003.002-.006.005-.009.007-.304.227-.639.422-.962.628l-4.596-5.358c-.872-1.017-2.14-1.6-3.479-1.6s-2.606.583-3.479,1.6l-4.595,5.358c-.324-.207-.66-.402-.964-.629-.001-.001-.003-.002-.004-.003-.308-.23-.582-.49-.868-.739l3.654-5.991c.697-1.143.86-2.528.446-3.802-.414-1.273-1.36-2.299-2.596-2.814l-6.178-2.573c.007-.026.012-.054.019-.08.096-.355.201-.706.322-1.051Zm7.951,18.678l4.333-5.052c.982-1.146,2.938-1.146,3.92,0l4.333,5.052c-3.951,1.794-8.641,1.793-12.585,0Zm17.667-3.806l-3.411-5.593c-.393-.645-.484-1.425-.251-2.143.233-.718.767-1.296,1.463-1.586l5.788-2.411c.073.603.122,1.215.122,1.84,0,3.682-1.315,7.146-3.712,9.893Zm1.447-17.791l-5.945,1.412c-.734.175-1.504.021-2.115-.423-.61-.443-.995-1.129-1.056-1.88l-.48-5.927c3.987.868,7.442,3.322,9.596,6.819Zm-16.047-6.819l-.48,5.927c-.061.751-.446,1.437-1.056,1.88-.611.444-1.381.599-2.115.423l-5.945-1.412c2.151-3.493,5.604-5.948,9.596-6.819Z"/><path d="m76.28,66.939h-2.837c3.011-2.61,5.554-5.68,7.529-9.075.024-.032.052-.059.073-.094.019-.033.02-.07.035-.104,3.076-5.365,4.771-11.502,4.771-17.816,0-6.497-1.746-12.591-4.781-17.852-.012-.024-.011-.051-.025-.075-.014-.024-.037-.037-.052-.059-3.134-5.379-7.625-9.871-13.004-13.005-.024-.017-.039-.042-.065-.057-.027-.015-.056-.015-.083-.028-5.258-3.031-11.348-4.774-17.84-4.774s-12.582,1.744-17.84,4.774c-.027.013-.057.013-.084.028-.026.015-.041.04-.065.057-5.379,3.134-9.87,7.626-13.004,13.005-.015.022-.038.035-.052.059-.014.024-.014.051-.025.075-3.035,5.261-4.781,11.354-4.781,17.852,0,6.313,1.696,12.451,4.771,17.816.015.034.016.071.035.104.02.035.049.062.073.094,1.975,3.396,4.517,6.465,7.529,9.075h-2.837c-5.275,0-9.567,4.292-9.567,9.567v9.927c0,5.275,4.292,9.567,9.567,9.567h52.56c5.275,0,9.567-4.292,9.567-9.567v-9.927c0-5.275-4.292-9.567-9.567-9.567Zm-55.054-9.325l3.266-1.886c.479-.276.642-.888.366-1.366-.276-.479-.889-.644-1.366-.366l-3.266,1.886c-2.472-4.588-3.888-9.732-4.046-15.035h3.788c.552,0,1-.448,1-1s-.448-1-1-1h-3.793c.159-5.43,1.595-10.545,4.03-15.047l3.287,1.898c.158.091.33.134.499.134.346,0,.682-.179.867-.5.276-.479.112-1.09-.366-1.366l-3.28-1.894c2.769-4.467,6.546-8.243,11.013-11.012l1.893,3.279c.186.321.521.5.867.5.169,0,.341-.043.499-.134.478-.276.642-.888.366-1.366l-1.897-3.285c4.502-2.434,9.617-3.869,15.047-4.028v3.79c0,.552.448,1,1,1s1-.448,1-1v-3.79c5.43.159,10.544,1.593,15.047,4.028l-1.897,3.285c-.276.479-.112,1.09.366,1.366.158.091.33.134.499.134.346,0,.682-.179.867-.5l1.893-3.279c4.467,2.768,8.244,6.545,11.013,11.012l-3.28,1.894c-.479.276-.642.888-.366,1.366.186.321.521.5.867.5.169,0,.342-.043.499-.134l3.287-1.898c2.435,4.502,3.87,9.617,4.03,15.047h-3.793c-.552,0-1,.448-1,1s.448,1,1,1h3.788c-.159,5.304-1.574,10.447-4.046,15.035l-3.266-1.886c-.479-.277-1.09-.112-1.366.366-.276.478-.112,1.09.366,1.366l3.266,1.886c-2.206,3.576-5.073,6.755-8.507,9.325h-3.468l-.912-1.587c-.275-.479-.885-.645-1.365-.369-.479.275-.644.886-.369,1.365l.34.591h-28.985l.34-.591c.275-.479.11-1.09-.369-1.365-.479-.274-1.089-.109-1.365.369l-.912,1.587h-3.468c-3.434-2.57-6.301-5.75-8.507-9.325Zm62.621,25.64H16.153v-3.569h67.693v3.569Zm-7.567,10.746h-3.846l2.698-3.343c.347-.43.279-1.059-.15-1.406-.429-.346-1.059-.279-1.406.15l-3.712,4.599h-8.604l2.698-3.343c.347-.43.279-1.059-.15-1.406-.429-.346-1.059-.279-1.406.15l-3.712,4.599h-8.604l2.699-3.343c.347-.43.28-1.059-.15-1.406-.428-.346-1.058-.279-1.406.15l-3.712,4.599h-8.604l2.698-3.343c.347-.43.279-1.059-.15-1.406-.427-.346-1.058-.279-1.406.15l-3.712,4.599h-8.604l2.698-3.343c.347-.43.279-1.059-.15-1.406-.428-.346-1.059-.279-1.406.15l-3.712,4.599h-1.448c-4.172,0-7.567-3.395-7.567-7.567v-1.179h67.693v1.179c0,4.172-3.395,7.567-7.567,7.567Zm7.567-16.314H16.153v-1.179c0-4.172,3.395-7.567,7.567-7.567h1.448l3.712,4.599c.198.245.487.372.779.372.221,0,.443-.073.627-.222.43-.347.497-.977.15-1.406l-2.698-3.343h6.037s.003,0,.004,0,.003,0,.004,0h2.559l3.712,4.599c.198.245.487.372.779.372.221,0,.443-.073.627-.222.43-.347.497-.977.15-1.406l-2.698-3.343h8.604l3.712,4.599c.198.245.487.372.779.372.221,0,.443-.073.627-.222.43-.347.497-.977.15-1.406l-2.699-3.343h8.604l3.712,4.599c.198.245.487.372.779.372.221,0,.443-.073.627-.222.43-.347.497-.977.15-1.406l-2.698-3.343h4.957s.003,0,.004,0,.003,0,.004,0h3.639l3.712,4.599c.198.245.487.372.779.372.221,0,.443-.073.627-.222.43-.347.497-.977.15-1.406l-2.698-3.343h3.846c4.172,0,7.567,3.395,7.567,7.567v1.179Z"/></svg>