<svg xmlns="http://www.w3.org/2000/svg" data-name="Layer 7" viewBox="-5.0 -10.0 110.0 135.0" x="0px" y="0px"><path d="m86.488,8.869c-1.24,0-2.406.483-3.283,1.36-1.81,1.811-1.81,4.755,0,6.565.905.905,2.094,1.357,3.283,1.357s2.378-.453,3.283-1.357c1.81-1.811,1.81-4.755,0-6.565-.876-.877-2.042-1.36-3.283-1.36Zm1.869,6.512c-1.03,1.029-2.707,1.029-3.737,0-1.03-1.03-1.03-2.707,0-3.737.5-.499,1.163-.774,1.869-.774s1.37.275,1.869.774c1.03,1.03,1.03,2.707,0,3.737Z"/><path d="m11.103,84.128c-1.315,1.314-1.315,3.455,0,4.77.637.637,1.484.988,2.385.988s1.748-.352,2.385-.988h0c1.314-1.315,1.314-3.454,0-4.77-1.275-1.274-3.497-1.273-4.77,0Zm3.355,3.355c-.52.519-1.423.519-1.941,0-.535-.535-.535-1.406,0-1.941.259-.26.604-.402.97-.402s.711.144.97.402c.535.535.535,1.406,0,1.941Z"/><path d="m96,13.512c0-2.54-.99-4.928-2.787-6.725-3.708-3.709-9.742-3.709-13.45,0-1.036,1.035-1.809,2.283-2.274,3.657l-3.779-1.873c-.384-.188-.848-.113-1.151.189l-7.334,7.334-.979-.979c-.391-.391-1.023-.391-1.414,0l-3.823,3.822c-.188.188-.293.441-.293.707s.105.52.293.707l2.273,2.273-6.445,6.739-1.496-.874c-2.125-1.244-4.867-.521-6.108,1.604-.602,1.03-.766,2.232-.463,3.387.269,1.027.894,1.889,1.751,2.493l-3.205,3.345-1.769-1.033c-2.126-1.242-4.867-.521-6.108,1.604-1.228,2.103-.533,4.801,1.538,6.062l-3.179,3.325-2.046-1.195c-2.125-1.243-4.866-.521-6.108,1.604-.602,1.03-.767,2.232-.463,3.387.303,1.154,1.037,2.121,2.067,2.723l.206.12-3.178,3.317-2.317-1.354c-2.125-1.243-4.867-.523-6.109,1.604-1.241,2.126-.522,4.866,1.604,6.108l.477.279-3.755,3.924-.621-.621c-.375-.375-1.039-.375-1.414,0l-3.823,3.823c-.391.391-.391,1.023,0,1.414l1.775,1.775-5.156,5.156c-1.566,1.566-2.429,3.648-2.429,5.863s.863,4.298,2.429,5.864c1.617,1.616,3.74,2.425,5.864,2.425s4.247-.809,5.864-2.425l5.156-5.156,1.775,1.775c.188.188.442.293.707.293s.52-.105.707-.293l3.823-3.823c.391-.391.391-1.023,0-1.414l-.621-.621,7.758-7.423,2.398,1.4c.693.405,1.463.612,2.245.612.38,0,.764-.05,1.142-.148,1.153-.303,2.12-1.037,2.722-2.067,1.241-2.126.522-4.866-1.604-6.108l-.187-.109,3.358-3.212,2.119,1.238c.693.405,1.463.612,2.245.612.38,0,.764-.05,1.142-.148,1.153-.303,2.12-1.037,2.722-2.066.602-1.03.767-2.233.463-3.388-.294-1.121-1.001-2.058-1.984-2.662l3.365-3.219,1.842,1.076c.692.405,1.463.612,2.245.612.38,0,.764-.05,1.142-.148,1.154-.304,2.121-1.038,2.722-2.067.602-1.03.766-2.232.463-3.387-.267-1.017-.883-1.873-1.728-2.477l3.392-3.239,1.559.911h0c.706.413,1.48.608,2.245.608,1.537,0,3.035-.793,3.864-2.212.602-1.03.766-2.232.463-3.387-.24-.915-.759-1.703-1.474-2.293l2.527-2.417,2.272,2.272c.188.188.442.293.707.293s.52-.105.707-.293l3.823-3.823c.391-.391.391-1.023,0-1.414l-.979-.979,7.334-7.335c.304-.304.379-.767.189-1.151l-1.873-3.778c1.375-.466,2.623-1.238,3.658-2.274,1.797-1.797,2.787-4.185,2.787-6.725ZM17.249,91.651c-2.453,2.453-6.446,2.453-8.899,0h0c-1.188-1.189-1.843-2.77-1.843-4.45s.655-3.261,1.843-4.449l5.156-5.156,8.899,8.899-5.156,5.156Zm9.052-4.088l-1.774-1.774s0-.001,0-.001l-10.313-10.313s0,0-.001,0l-1.773-1.773,2.409-2.409,13.863,13.863-2.409,2.409ZM70.661,21.531l4.362-4.362c.119-.118.257-.136.329-.136s.21.018.329.136l7.15,7.149c.119.119.136.257.136.329s-.018.21-.136.329l-4.362,4.362-7.808-7.808Zm-41.866,60.88l-11.207-11.207,4.115-4.3,14.467,8.45-7.375,7.057Zm15.951-7.22c-.333.569-.866.975-1.503,1.142-.637.167-1.301.076-1.87-.256l-20.914-12.216c-1.174-.687-1.571-2.199-.886-3.373.458-.784,1.285-1.222,2.134-1.222.422,0,.85.108,1.24.336l20.914,12.216c1.174.687,1.571,2.199.886,3.373Zm-1.861-6.258l-14.837-8.666,3.178-3.317,15.016,8.771-3.357,3.212Zm11.655-3.537c-.333.569-.866.975-1.503,1.142-.638.167-1.302.077-1.87-.256l-20.914-12.216c-.569-.333-.974-.866-1.142-1.504-.167-.637-.076-1.301.256-1.87.458-.784,1.285-1.222,2.133-1.222.422,0,.849.108,1.239.336l20.914,12.217c.568.332.974.866,1.141,1.503.167.638.076,1.302-.256,1.87Zm-1.583-6.096l-15.387-8.988,3.174-3.319,15.57,9.095-3.357,3.212Zm11.378-3.7c-.333.569-.867.975-1.504,1.143-.637.167-1.301.076-1.87-.256l-20.914-12.216c-1.174-.687-1.571-2.199-.885-3.374.458-.784,1.285-1.222,2.133-1.222.422,0,.849.108,1.239.336l20.915,12.217c.568.332.974.866,1.141,1.503.167.637.077,1.301-.255,1.869Zm-1.304-5.932l-15.943-9.312,3.178-3.317,16.125,9.42-3.361,3.209Zm11.099-3.862c-.685,1.175-2.2,1.57-3.374.886l-20.914-12.217c-.568-.332-.974-.866-1.141-1.503-.167-.637-.077-1.301.256-1.87.685-1.175,2.2-1.571,3.373-.886l20.914,12.217c.568.332.974.866,1.141,1.503.167.637.077,1.301-.256,1.87Zm-1.027-5.771l-16.492-9.634,6.084-6.362,13.263,13.264-2.855,2.731Zm7.249-1.165l-19.224-19.225,2.409-2.408.965.965s.006.011.011.016l1.195,1.195s.002.003.003.004l14.868,14.868s0,0,0,0l1.199,1.199c.006.006.014.007.019.013l.963.963-2.409,2.409Zm7.572-17.992c-.307.06-.567.258-.706.538-.138.279-.138.607,0,.888l2.097,4.23-6.824,6.825-.486-.486c-.011-.012-.024-.021-.036-.032l-2.088-2.088,4.362-4.362c.961-.961.961-2.525,0-3.486l-7.149-7.149c-.931-.932-2.556-.932-3.486,0l-4.362,4.362-2.089-2.089c-.01-.011-.02-.024-.031-.035l-.486-.486,6.824-6.824,4.232,2.098c.279.139.607.139.888,0,.28-.139.479-.4.538-.707.285-1.475.996-2.813,2.054-3.872,2.929-2.928,7.693-2.928,10.622,0,1.419,1.419,2.201,3.305,2.201,5.311s-.782,3.892-2.201,5.311c-1.059,1.059-2.398,1.77-3.874,2.056Z"/></svg>