<svg xmlns="http://www.w3.org/2000/svg" data-name="Layer 1" viewBox="0 0 512 640" x="0px" y="0px"><title>Battery</title><path d="M418,269a8,8,0,0,0-8-8H105a8,8,0,0,0-8,8V397a8,8,0,0,0,8,8H410a8,8,0,0,0,8-8Zm-305,8H401V390H113Z"/><path d="M494,140H476V111a8,8,0,0,0-8-8H419V53.249A8.645,8.645,0,0,0,410.512,45h-68.1A8.574,8.574,0,0,0,334,53.249V103H180V53.249A8.574,8.574,0,0,0,171.59,45h-68.1A8.645,8.645,0,0,0,95,53.249V103H43a8,8,0,0,0-8,8v29H17a8,8,0,0,0-8,8v57a8,8,0,0,0,8,8H35V459a8,8,0,0,0,8,8H468a8,8,0,0,0,8-8V213h18a8,8,0,0,0,8-8V148A8,8,0,0,0,494,140ZM350,61h53v42H350ZM111,61h53v42H111ZM460,451H51V213H460Zm26-254H25V156H43a8,8,0,0,0,8-8V119H460v29a8,8,0,0,0,8,8h18Z"/></svg>