<svg xmlns="http://www.w3.org/2000/svg" data-name="Layer 19" viewBox="-5.0 -10.0 110.0 135.0" x="0px" y="0px"><path d="m31.118,49.508c-2.511,0-4.554,2.043-4.554,4.555s2.043,4.554,4.554,4.554,4.554-2.043,4.554-4.554-2.043-4.555-4.554-4.555Zm0,7.108c-1.408,0-2.554-1.146-2.554-2.554s1.146-2.555,2.554-2.555,2.554,1.146,2.554,2.555-1.146,2.554-2.554,2.554Z"/><path d="m42.298,49.508c-2.511,0-4.554,2.043-4.554,4.555s2.043,4.554,4.554,4.554,4.554-2.043,4.554-4.554-2.043-4.555-4.554-4.555Zm0,7.108c-1.408,0-2.554-1.146-2.554-2.554s1.146-2.555,2.554-2.555,2.554,1.146,2.554,2.555-1.146,2.554-2.554,2.554Z"/><path d="m54.748,49.508c-2.511,0-4.554,2.043-4.554,4.555s2.043,4.554,4.554,4.554,4.554-2.043,4.554-4.554-2.043-4.555-4.554-4.555Zm0,7.108c-1.408,0-2.554-1.146-2.554-2.554s1.146-2.555,2.554-2.555,2.554,1.146,2.554,2.555-1.146,2.554-2.554,2.554Z"/><path d="m72.197,42.475h-.114c-.552,0-1,.447-1,1s.448,1,1,1h.114c.552,0,1-.447,1-1s-.448-1-1-1Z"/><path d="m24.618,42.475h-.114c-.552,0-1,.447-1,1s.448,1,1,1h.114c.552,0,1-.447,1-1s-.448-1-1-1Z"/><path d="m24.618,63.114h-.114c-.552,0-1,.447-1,1s.448,1,1,1h.114c.552,0,1-.447,1-1s-.448-1-1-1Z"/><path d="m72.197,62.083h-.114c-.552,0-1,.447-1,1s.448,1,1,1h.114c.552,0,1-.447,1-1s-.448-1-1-1Z"/><path d="m65.928,49.508c-2.511,0-4.554,2.043-4.554,4.555s2.043,4.554,4.554,4.554,4.554-2.043,4.554-4.554-2.043-4.555-4.554-4.555Zm0,7.108c-1.408,0-2.554-1.146-2.554-2.554s1.146-2.555,2.554-2.555,2.554,1.146,2.554,2.555-1.146,2.554-2.554,2.554Z"/><path d="m92.59,42.475h-6.7c-.552,0-1,.447-1,1v4.537h-5.979v-6.111c0-1.966-1.6-3.565-3.565-3.565h-6.726v-3.127c0-1.966-1.6-3.565-3.565-3.565h-10.188v-5.299h6.368c.552,0,1-.447,1-1v-3.496c0-.266-.105-.52-.293-.707l-2.744-2.744c-.188-.188-.442-.293-.707-.293h-15.547c-.265,0-.52.105-.707.293l-2.744,2.744c-.188.188-.293.441-.293.707v3.496c0,.553.448,1,1,1h6.507v5.299h-6.995c-1.966,0-3.565,1.6-3.565,3.565v1.562c0,.863-.702,1.565-1.565,1.565h-12.877c-1.966,0-3.565,1.6-3.565,3.565v5.596h-6.646v-1.137c0-2.065-1.681-3.746-3.746-3.746s-3.746,1.681-3.746,3.746v15.544c0,2.065,1.68,3.746,3.746,3.746s3.746-1.681,3.746-3.746v-1.275h6.646v5.735c0,1.966,1.599,3.565,3.565,3.565h11.842c.479,0,.931.233,1.208.625.051.072.112.138.181.194l4.688,3.855c.656.85,1.675,1.353,2.753,1.353h26.724c1.919,0,3.481-1.562,3.481-3.481v-2.088h2.765c1.966,0,3.565-1.6,3.565-3.565v-4.536h5.979v4.536c0,.553.448,1,1,1h6.7c1.88,0,3.41-1.529,3.41-3.409v-18.528c0-1.88-1.53-3.409-3.41-3.409Zm-51.392-20.213l2.158-2.158h14.719l2.158,2.158v2.082h-19.036v-2.082Zm11.667,4.082v5.281h-4.16v-5.281h4.16ZM9.492,61.903c0,.963-.783,1.746-1.746,1.746s-1.746-.783-1.746-1.746v-15.544c0-.963.783-1.746,1.746-1.746s1.746.783,1.746,1.746v15.544Zm2-3.275v-9.132h6.646v9.132h-6.646Zm63.854,9.759h-3.765c-.552,0-1,.447-1,1v3.088c0,.816-.665,1.481-1.481,1.481h-26.724c-.479,0-.931-.233-1.208-.625-.051-.072-.112-.138-.181-.194l-4.688-3.855c-.657-.85-1.676-1.353-2.754-1.353h-11.842c-.863,0-1.565-.702-1.565-1.565v-24.463c0-.863.702-1.565,1.565-1.565h12.877c1.966,0,3.565-1.6,3.565-3.565v-1.562c0-.863.702-1.565,1.565-1.565h25.343c.863,0,1.565.702,1.565,1.565v4.127c0,.553.448,1,1,1h7.726c.863,0,1.565.702,1.565,1.565v7.099s-.002.008-.002.012v12.273s.002.008.002.012v5.524c0,.863-.702,1.565-1.565,1.565Zm3.565-8.102v-10.273h5.979v10.273h-5.979Zm15.089,4.127c0,.777-.632,1.409-1.41,1.409h-5.7v-21.347h5.7c.777,0,1.41.632,1.41,1.409v18.528Z"/></svg>